# xmcd
#
# Track frame offsets:
#	150
#	11256
#	25589
#	38582
#	46913
#	58772
#	69804
#	84470
#	98025
#	114798
#	131375
#	144068
#	157315
#	169970
#	184927
#	200777
#	211180
#	225611
#	238130
#	250680
#	265078
#
# Disc length: 3765 seconds
# Revision: 0
# Processed by: cddbd v1.5.2PL0 Copyright (c) Steve Scherf et al.
# Submitted via: dBpowerAMP V12.0
#
DISCID=0d0eb315
DTITLE=Noel Poley Everett - The Collection Dsic 3
DYEAR=2016
DGENRE=Country
TTITLE0=Cold Cold Woman
TTITLE1=Chickens ComeBack Home to Roost
TTITLE2=Tear Stains on You Letter
TTITLE3=O'Flannagans Billygoat
TTITLE4=I Didn't Say I Wouldn't Love You
TTITLE5=This World's Gonna Throw Me
TTITLE6=Teaching The Wife to Drive
TTITLE7=Your Still in The Back of My Mind
TTITLE8=Water Beneath The Bridge
TTITLE9=Highway of Chance
TTITLE10=Rodeo Boy
TTITLE11=My Special Lady
TTITLE12=Loving You
TTITLE13=The Old Cattle Run
TTITLE14=Old Heart of Mine
TTITLE15=Recipe of Love
TTITLE16=There's Always Someone Worse Off Than Yourself
TTITLE17=Kisses and Cuddles
TTITLE18=Two Friends of Mine
TTITLE19=Wirey Joe
TTITLE20=Country Cowboy
EXTD=
EXTT0=
EXTT1=
EXTT2=
EXTT3=
EXTT4=
EXTT5=
EXTT6=
EXTT7=
EXTT8=
EXTT9=
EXTT10=
EXTT11=
EXTT12=
EXTT13=
EXTT14=
EXTT15=
EXTT16=
EXTT17=
EXTT18=
EXTT19=
EXTT20=
PLAYORDER=
